<svg id="visual" viewBox="0 0 900 600" width="900" height="600" xmlns="http://www.w3.org/2000/svg" xmlns:xlink="http://www.w3.org/1999/xlink" version="1.1"><rect width="900" height="600" fill="#931F1F"></rect><g><g transform="translate(89 566)"><path d="M51.2 0.1C51.2 25.7 25.6 51.4 -1.1 51.4C-27.8 51.4 -55.7 25.7 -55.7 0.1C-55.7 -25.5 -27.8 -51.1 -1.1 -51.1C25.6 -51.1 51.2 -25.5 51.2 0.1Z" stroke="#F7760E" fill="none" stroke-width="20"></path></g><g transform="translate(535 306)"><path d="M50.2 0.2C50.2 23.4 25.1 46.7 0.9 46.7C-23.3 46.7 -46.6 23.4 -46.6 0.2C-46.6 -23 -23.3 -46.1 0.9 -46.1C25.1 -46.1 50.2 -23 50.2 0.2Z" stroke="#F7760E" fill="none" stroke-width="20"></path></g><g transform="translate(249 332)"><path d="M47.8 -0.9C47.8 23.8 23.9 47.6 0.4 47.6C-23.2 47.6 -46.4 23.8 -46.4 -0.9C-46.4 -25.6 -23.2 -51.2 0.4 -51.2C23.9 -51.2 47.8 -25.6 47.8 -0.9Z" stroke="#F7760E" fill="none" stroke-width="20"></path></g><g transform="translate(852 340)"><path d="M50.9 -0.3C50.9 23.9 25.4 47.7 0.5 47.7C-24.5 47.7 -49 23.9 -49 -0.3C-49 -24.5 -24.5 -49.1 0.5 -49.1C25.4 -49.1 50.9 -24.5 50.9 -0.3Z" stroke="#F7760E" fill="none" stroke-width="20"></path></g><g transform="translate(745 84)"><path d="M49.4 -0.1C49.4 23.4 24.7 46.9 0.8 46.9C-23.1 46.9 -46.2 23.4 -46.2 -0.1C-46.2 -23.6 -23.1 -47.2 0.8 -47.2C24.7 -47.2 49.4 -23.6 49.4 -0.1Z" stroke="#F7760E" fill="none" stroke-width="20"></path></g><g transform="translate(8 147)"><path d="M50.4 -0.3C50.4 23.9 25.2 47.7 0.4 47.7C-24.4 47.7 -48.9 23.9 -48.9 -0.3C-48.9 -24.6 -24.4 -49.1 0.4 -49.1C25.2 -49.1 50.4 -24.6 50.4 -0.3Z" stroke="#F7760E" fill="none" stroke-width="20"></path></g><g transform="translate(464 61)"><path d="M48.1 -0.1C48.1 23.8 24.1 47.6 0.1 47.6C-23.8 47.6 -47.7 23.8 -47.7 -0.1C-47.7 -23.9 -23.8 -47.8 0.1 -47.8C24.1 -47.8 48.1 -23.9 48.1 -0.1Z" stroke="#F7760E" fill="none" stroke-width="20"></path></g><g transform="translate(391 476)"><path d="M46.8 1.4C46.8 24.8 23.4 49.5 -0.3 49.5C-24.1 49.5 -48.2 24.8 -48.2 1.4C-48.2 -22 -24.1 -43.9 -0.3 -43.9C23.4 -43.9 46.8 -22 46.8 1.4Z" stroke="#F7760E" fill="none" stroke-width="20"></path></g></g></svg>