<svg id="visual" viewBox="0 0 900 600" width="900" height="600" xmlns="http://www.w3.org/2000/svg" xmlns:xlink="http://www.w3.org/1999/xlink" version="1.1"><rect x="0" y="0" width="900" height="600" fill="#001220"></rect><defs><linearGradient id="grad1_0" x1="33.3%" y1="0%" x2="100%" y2="100%"><stop offset="20%" stop-color="#001220" stop-opacity="1"></stop><stop offset="80%" stop-color="#001220" stop-opacity="1"></stop></linearGradient></defs><defs><linearGradient id="grad2_0" x1="0%" y1="0%" x2="66.7%" y2="100%"><stop offset="20%" stop-color="#001220" stop-opacity="1"></stop><stop offset="80%" stop-color="#001220" stop-opacity="1"></stop></linearGradient></defs><g transform="translate(900, 0)"><path d="M0 486.7C-65.2 481.9 -130.5 477 -186.3 449.7C-242 422.4 -288.4 372.8 -322.4 322.4C-356.5 272.1 -378.4 221.1 -403.7 167.2C-429.1 113.4 -457.9 56.7 -486.7 0L0 0Z" fill="#FBAE3C"></path></g><g transform="translate(0, 600)"><path d="M0 -486.7C52.2 -455.1 104.4 -423.4 168 -405.6C231.6 -387.8 306.7 -384 344.2 -344.2C381.7 -304.4 381.6 -228.7 399.1 -165.3C416.6 -102 451.7 -51 486.7 0L0 0Z" fill="#FBAE3C"></path></g></svg>