<svg id="visual" viewBox="0 0 900 600" width="900" height="600" xmlns="http://www.w3.org/2000/svg" xmlns:xlink="http://www.w3.org/1999/xlink" version="1.1"><rect x="0" y="0" width="900" height="600" fill="#001220"></rect><path d="M0 320L16.7 332.3C33.3 344.7 66.7 369.3 100 365.5C133.3 361.7 166.7 329.3 200 325.7C233.3 322 266.7 347 300 346.5C333.3 346 366.7 320 400 326.2C433.3 332.3 466.7 370.7 500 373.2C533.3 375.7 566.7 342.3 600 326.2C633.3 310 666.7 311 700 323.2C733.3 335.3 766.7 358.7 800 366C833.3 373.3 866.7 364.7 883.3 360.3L900 356L900 601L883.3 601C866.7 601 833.3 601 800 601C766.7 601 733.3 601 700 601C666.7 601 633.3 601 600 601C566.7 601 533.3 601 500 601C466.7 601 433.3 601 400 601C366.7 601 333.3 601 300 601C266.7 601 233.3 601 200 601C166.7 601 133.3 601 100 601C66.7 601 33.3 601 16.7 601L0 601Z" fill="#fa7268"></path><path d="M0 387L16.7 379.5C33.3 372 66.7 357 100 364.7C133.3 372.3 166.7 402.7 200 418.7C233.3 434.7 266.7 436.3 300 435.8C333.3 435.3 366.7 432.7 400 423.2C433.3 413.7 466.7 397.3 500 382.8C533.3 368.3 566.7 355.7 600 367.5C633.3 379.3 666.7 415.7 700 429.8C733.3 444 766.7 436 800 434C833.3 432 866.7 436 883.3 438L900 440L900 601L883.3 601C866.7 601 833.3 601 800 601C766.7 601 733.3 601 700 601C666.7 601 633.3 601 600 601C566.7 601 533.3 601 500 601C466.7 601 433.3 601 400 601C366.7 601 333.3 601 300 601C266.7 601 233.3 601 200 601C166.7 601 133.3 601 100 601C66.7 601 33.3 601 16.7 601L0 601Z" fill="#ef5f67"></path><path d="M0 421L16.7 425.5C33.3 430 66.7 439 100 445.5C133.3 452 166.7 456 200 456.3C233.3 456.7 266.7 453.3 300 455.8C333.3 458.3 366.7 466.7 400 468.8C433.3 471 466.7 467 500 456.3C533.3 445.7 566.7 428.3 600 433.3C633.3 438.3 666.7 465.7 700 473.7C733.3 481.7 766.7 470.3 800 465.8C833.3 461.3 866.7 463.7 883.3 464.8L900 466L900 601L883.3 601C866.7 601 833.3 601 800 601C766.7 601 733.3 601 700 601C666.7 601 633.3 601 600 601C566.7 601 533.3 601 500 601C466.7 601 433.3 601 400 601C366.7 601 333.3 601 300 601C266.7 601 233.3 601 200 601C166.7 601 133.3 601 100 601C66.7 601 33.3 601 16.7 601L0 601Z" fill="#e34c67"></path><path d="M0 494L16.7 491C33.3 488 66.7 482 100 476.2C133.3 470.3 166.7 464.7 200 462.8C233.3 461 266.7 463 300 471.5C333.3 480 366.7 495 400 501.5C433.3 508 466.7 506 500 507.2C533.3 508.3 566.7 512.7 600 509C633.3 505.3 666.7 493.7 700 493.7C733.3 493.7 766.7 505.3 800 500.3C833.3 495.3 866.7 473.7 883.3 462.8L900 452L900 601L883.3 601C866.7 601 833.3 601 800 601C766.7 601 733.3 601 700 601C666.7 601 633.3 601 600 601C566.7 601 533.3 601 500 601C466.7 601 433.3 601 400 601C366.7 601 333.3 601 300 601C266.7 601 233.3 601 200 601C166.7 601 133.3 601 100 601C66.7 601 33.3 601 16.7 601L0 601Z" fill="#d53867"></path><path d="M0 546L16.7 546C33.3 546 66.7 546 100 542C133.3 538 166.7 530 200 532.8C233.3 535.7 266.7 549.3 300 553.8C333.3 558.3 366.7 553.7 400 548.2C433.3 542.7 466.7 536.3 500 537C533.3 537.7 566.7 545.3 600 541C633.3 536.7 666.7 520.3 700 519.5C733.3 518.7 766.7 533.3 800 541C833.3 548.7 866.7 549.3 883.3 549.7L900 550L900 601L883.3 601C866.7 601 833.3 601 800 601C766.7 601 733.3 601 700 601C666.7 601 633.3 601 600 601C566.7 601 533.3 601 500 601C466.7 601 433.3 601 400 601C366.7 601 333.3 601 300 601C266.7 601 233.3 601 200 601C166.7 601 133.3 601 100 601C66.7 601 33.3 601 16.7 601L0 601Z" fill="#c62368"></path></svg>