<svg id="visual" viewBox="0 0 900 600" width="900" height="600" xmlns="http://www.w3.org/2000/svg" xmlns:xlink="http://www.w3.org/1999/xlink" version="1.1"><path d="M0 91L13.7 90C27.3 89 54.7 87 82 90C109.3 93 136.7 101 163.8 102C191 103 218 97 245.2 89C272.3 81 299.7 71 327 73C354.3 75 381.7 89 409 87C436.3 85 463.7 67 491 68C518.3 69 545.7 89 573 90C600.3 91 627.7 73 654.8 75C682 77 709 99 736.2 98C763.3 97 790.7 73 818 62C845.3 51 872.7 53 886.3 54L900 55L900 0L886.3 0C872.7 0 845.3 0 818 0C790.7 0 763.3 0 736.2 0C709 0 682 0 654.8 0C627.7 0 600.3 0 573 0C545.7 0 518.3 0 491 0C463.7 0 436.3 0 409 0C381.7 0 354.3 0 327 0C299.7 0 272.3 0 245.2 0C218 0 191 0 163.8 0C136.7 0 109.3 0 82 0C54.7 0 27.3 0 13.7 0L0 0Z" fill="#6198ff"></path><path d="M0 169L13.7 166C27.3 163 54.7 157 82 162C109.3 167 136.7 183 163.8 188C191 193 218 187 245.2 177C272.3 167 299.7 153 327 147C354.3 141 381.7 143 409 144C436.3 145 463.7 145 491 147C518.3 149 545.7 153 573 144C600.3 135 627.7 113 654.8 114C682 115 709 139 736.2 149C763.3 159 790.7 155 818 146C845.3 137 872.7 123 886.3 116L900 109L900 53L886.3 52C872.7 51 845.3 49 818 60C790.7 71 763.3 95 736.2 96C709 97 682 75 654.8 73C627.7 71 600.3 89 573 88C545.7 87 518.3 67 491 66C463.7 65 436.3 83 409 85C381.7 87 354.3 73 327 71C299.7 69 272.3 79 245.2 87C218 95 191 101 163.8 100C136.7 99 109.3 91 82 88C54.7 85 27.3 87 13.7 88L0 89Z" fill="#3c80ff"></path><path d="M0 247L13.7 253C27.3 259 54.7 271 82 284C109.3 297 136.7 311 163.8 302C191 293 218 261 245.2 240C272.3 219 299.7 209 327 220C354.3 231 381.7 263 409 279C436.3 295 463.7 295 491 289C518.3 283 545.7 271 573 261C600.3 251 627.7 243 654.8 245C682 247 709 259 736.2 265C763.3 271 790.7 271 818 265C845.3 259 872.7 247 886.3 241L900 235L900 107L886.3 114C872.7 121 845.3 135 818 144C790.7 153 763.3 157 736.2 147C709 137 682 113 654.8 112C627.7 111 600.3 133 573 142C545.7 151 518.3 147 491 145C463.7 143 436.3 143 409 142C381.7 141 354.3 139 327 145C299.7 151 272.3 165 245.2 175C218 185 191 191 163.8 186C136.7 181 109.3 165 82 160C54.7 155 27.3 161 13.7 164L0 167Z" fill="#0066ff"></path><path d="M0 475L13.7 461C27.3 447 54.7 419 82 414C109.3 409 136.7 427 163.8 443C191 459 218 473 245.2 465C272.3 457 299.7 427 327 409C354.3 391 381.7 385 409 394C436.3 403 463.7 427 491 426C518.3 425 545.7 399 573 397C600.3 395 627.7 417 654.8 440C682 463 709 487 736.2 484C763.3 481 790.7 451 818 446C845.3 441 872.7 461 886.3 471L900 481L900 233L886.3 239C872.7 245 845.3 257 818 263C790.7 269 763.3 269 736.2 263C709 257 682 245 654.8 243C627.7 241 600.3 249 573 259C545.7 269 518.3 281 491 287C463.7 293 436.3 293 409 277C381.7 261 354.3 229 327 218C299.7 207 272.3 217 245.2 238C218 259 191 291 163.8 300C136.7 309 109.3 295 82 282C54.7 269 27.3 257 13.7 251L0 245Z" fill="#0059dd"></path><path d="M0 601L13.7 601C27.3 601 54.7 601 82 601C109.3 601 136.7 601 163.8 601C191 601 218 601 245.2 601C272.3 601 299.7 601 327 601C354.3 601 381.7 601 409 601C436.3 601 463.7 601 491 601C518.3 601 545.7 601 573 601C600.3 601 627.7 601 654.8 601C682 601 709 601 736.2 601C763.3 601 790.7 601 818 601C845.3 601 872.7 601 886.3 601L900 601L900 479L886.3 469C872.7 459 845.3 439 818 444C790.7 449 763.3 479 736.2 482C709 485 682 461 654.8 438C627.7 415 600.3 393 573 395C545.7 397 518.3 423 491 424C463.7 425 436.3 401 409 392C381.7 383 354.3 389 327 407C299.7 425 272.3 455 245.2 463C218 471 191 457 163.8 441C136.7 425 109.3 407 82 412C54.7 417 27.3 445 13.7 459L0 473Z" fill="#004cbb"></path></svg>