<svg id="visual" viewBox="0 0 900 600" width="900" height="600" xmlns="http://www.w3.org/2000/svg" xmlns:xlink="http://www.w3.org/1999/xlink" version="1.1"><rect x="0" y="0" width="900" height="600" fill="#002233"></rect><path d="M0 388L21.5 403.2C43 418.3 86 448.7 128.8 467.8C171.7 487 214.3 495 257.2 488.5C300 482 343 461 385.8 463.5C428.7 466 471.3 492 514.2 493.3C557 494.7 600 471.3 642.8 460.7C685.7 450 728.3 452 771.2 450.2C814 448.3 857 442.7 878.5 439.8L900 437L900 601L878.5 601C857 601 814 601 771.2 601C728.3 601 685.7 601 642.8 601C600 601 557 601 514.2 601C471.3 601 428.7 601 385.8 601C343 601 300 601 257.2 601C214.3 601 171.7 601 128.8 601C86 601 43 601 21.5 601L0 601Z" fill="#0066FF" stroke-linecap="round" stroke-linejoin="miter"></path></svg>