<svg id="visual" viewBox="0 0 900 600" width="900" height="600" xmlns="http://www.w3.org/2000/svg" xmlns:xlink="http://www.w3.org/1999/xlink" version="1.1"><rect x="0" y="0" width="900" height="600" fill="#001220"></rect><defs><linearGradient id="grad1_0" x1="33.3%" y1="0%" x2="100%" y2="100%"><stop offset="20%" stop-color="#001220" stop-opacity="1"></stop><stop offset="80%" stop-color="#001220" stop-opacity="1"></stop></linearGradient></defs><defs><linearGradient id="grad2_0" x1="0%" y1="0%" x2="66.7%" y2="100%"><stop offset="20%" stop-color="#001220" stop-opacity="1"></stop><stop offset="80%" stop-color="#001220" stop-opacity="1"></stop></linearGradient></defs><g transform="translate(900, 0)"><path d="M0 486.7C-71.7 488 -143.4 489.3 -186.3 449.7C-229.1 410.1 -243.2 329.6 -280.7 280.7C-318.3 231.8 -379.3 214.5 -417.6 173C-455.9 131.4 -471.3 65.7 -486.7 0L0 0Z" fill="#FBAE3C"></path></g><g transform="translate(0, 600)"><path d="M0 -486.7C52 -456.2 104 -425.7 169.1 -408.4C234.3 -391 312.5 -387 344.2 -344.2C375.9 -301.4 360.9 -219.9 376.9 -156.1C392.9 -92.3 439.8 -46.2 486.7 0L0 0Z" fill="#FBAE3C"></path></g></svg>